<svg xmlns="http://www.w3.org/2000/svg" width="65.983" height="58.955" viewBox="0 0 65.983 58.955"><defs><style>.a{fill:#70dbca;}.b{fill:#fff;}</style></defs><g transform="translate(-443.65 -1078.775)"><g transform="translate(443.65 1078.775)"><path class="a" d="M464.549,1169.849c-.526-.76-1.049-1.522-1.58-2.277-.4-.57-.8-.57-1.165.036a1.209,1.209,0,0,0-.136.241c-.809,2.529-2.633,3.007-5.063,2.809a70.844,70.844,0,0,0-7.619-.024,2.06,2.06,0,0,1-2.081-1.229c-4.1-7.365-4.29-14.842-.765-22.467.447-.968.95-1.291,2.025-.893,2.425.9,4.887,1.7,7.347,2.5,1.215.4,1.413.2,1.171-1.059-.192-1-.391-1.995-.618-2.985-.165-.721.085-1.05.824-1.048q3.95.011,7.9,0a1,1,0,0,1,1.11.978c.109.777.23,1.552.345,2.328a129.871,129.871,0,0,0,4.5,18.432c.375,1.151.977,1.6,2.1,1.454a30.339,30.339,0,0,1,4.129-.28c.647.006,1.325-.063.664-.984-5.159-3.9-6.6-9.873-3.473-14.923a11.731,11.731,0,0,1,9.16-5.571,12.242,12.242,0,0,1,8.405,1.669c2.934,1.955,3.967,4.888,4.224,8.2a28.237,28.237,0,0,1-1.074,9.886c-.166.589-.756,1.336.331,1.727,1.274.458,2.5.156,2.87-.779a30.541,30.541,0,0,0,1.772-7.83,68.046,68.046,0,0,0-1.508-21.919c-.5-2.353-1.062-4.693-1.669-7.019-.225-.861-.047-1.258.827-1.514,3.019-.885,6.03-1.8,9.021-2.781,1.064-.347,1.295.188,1.47,1.018a70.279,70.279,0,0,1,1.465,11,99.786,99.786,0,0,1-2.97,31.651c-.662,2.413-.634,2.422-3.123,2.422-3.379,0-6.759-.052-10.135.024a2.566,2.566,0,0,1-2.553-1.433c-1.8-2.961-1.592-2.577-3.055.049-.39,1.072-1.155,1.324-2.266,1.314-6.332-.054-12.666-.03-19-.021C465.655,1170.547,464.956,1170.6,464.549,1169.849Z" transform="translate(-443.65 -1111.744)"/><path class="a" d="M575.762,1150.865a4.205,4.205,0,0,1,8.409.165,4.205,4.205,0,1,1-8.409-.165Z" transform="translate(-539.074 -1127.888)"/><path class="a" d="M499.237,1153.847a3.43,3.43,0,1,1-6.828.143,3.641,3.641,0,0,1,3.5-3.865A3.564,3.564,0,0,1,499.237,1153.847Z" transform="translate(-478.868 -1130.31)"/><path class="a" d="M573.647,1106.095a2.244,2.244,0,0,1-2.376.181,1.657,1.657,0,0,0-2.147.557,2.618,2.618,0,0,1-2.851.941,2.582,2.582,0,0,1-1.556-2.689,7.21,7.21,0,0,1,.221-2.873c.112-.292.362-.614.728-.506.338.1.175.466.185.722.015.414-.023.833.022,1.244.082.741.38,1.394,1.215,1.451a1.586,1.586,0,0,0,1.647-1.217,4.582,4.582,0,0,0,.026-2.055c-.053-.565-.1-1.267.592-1.357.642-.084.457.67.59,1.055.342.987.717,1.923,1.845,2.242,1.144.324,1.689-.2,1.371-1.35a19.19,19.19,0,0,0-.74-2.084,1.366,1.366,0,0,1,.356-1.516c.3-.279.742-.751.945-.112C574.494,1101.174,575.48,1103.661,573.647,1106.095Z" transform="translate(-531.069 -1092.956)"/><path class="a" d="M468.356,1156.891c-1.586,1.21-3.239,1.211-4.49,0a4.226,4.226,0,0,1-.537-5.1c1.094-1.591,2.588-1.957,4.461-1.093C469.874,1152.507,470.046,1154.39,468.356,1156.891Z" transform="translate(-457.417 -1130.398)"/><path class="a" d="M566.083,1083.877c-1.2.425-2.4.882-3.62,1.255-.4.122-1.03.682-1.253-.067a1.3,1.3,0,0,1,.68-1.63c.712-.3,1.474-.469,2.215-.7,2.615-.9,5.271-1.689,7.826-2.76l0,0c.636.667.371,1.49-.7,1.935-1.4.582-2.834,1.083-4.267,1.583A2.748,2.748,0,0,0,566.083,1083.877Z" transform="translate(-528.516 -1079.642)"/><path class="a" d="M578.925,1083.009c1.374-1.14,3.2-1.205,4.728-1.99.8-.411,1.6-.772,1.124-1.911.243-.236.572-.452.853-.259.3.2-.031.489-.119.728a2.908,2.908,0,0,1-2.016,1.9A34.826,34.826,0,0,1,578.925,1083.009Z" transform="translate(-541.358 -1078.774)"/></g><path class="b" d="M591.069,1225.695a20.964,20.964,0,0,1-.6,4.805c-.175.816-.56,1.194-1.313.5a11.855,11.855,0,0,1-4.18-8.317,4.481,4.481,0,0,1,.086-1.241c.272-1.139.563-2.33,1.976-2.548a2.763,2.763,0,0,1,2.9,1.714A9.836,9.836,0,0,1,591.069,1225.695Z" transform="translate(-102.076 -101.182)"/><path class="b" d="M482.349,1228.985a24.794,24.794,0,0,1,2.154-9.97c.1-.251.2-.566.533-.559.43.01.44.41.518.706.447,1.7.9,3.39,1.312,5.093a2.337,2.337,0,0,1,.02,1.088,40.55,40.55,0,0,1-2.668,7.412c-.15.315-.264.786-.718.735s-.46-.527-.577-.863A16.784,16.784,0,0,1,482.349,1228.985Z" transform="translate(-27.952 -100.89)"/></g></svg>